HIERARCHY
ROOT Hips
{
	OFFSET 0.000000 0.000000 0.000000
	CHANNELS 6 Xposition Yposition Zposition Xrotation Yrotation Zrotation
	JOINT LeftUpLeg_virtual
	{
		OFFSET 0.000000 0.000000 0.000000
		CHANNELS 3 Xrotation Yrotation Zrotation
		JOINT LeftUpLeg
		{
			OFFSET 11.394100 -6.187798 -0.413800
			CHANNELS 3 Xrotation Yrotation Zrotation
			JOINT LeftLeg
			{
				OFFSET 0.430247 -32.302673 3.732800
				CHANNELS 3 Xrotation Yrotation Zrotation
				JOINT LeftFoot
				{
					OFFSET -0.430247 -48.264931 -6.423300
					CHANNELS 3 Xrotation Yrotation Zrotation
					JOINT LeftToeBase
					{
						OFFSET 4.230900 -16.068199 23.438400
						CHANNELS 3 Xrotation Yrotation Zrotation
						JOINT LeftToe_End
						{
							OFFSET 4.510700 0.695400 19.974600
							CHANNELS 3 Xrotation Yrotation Zrotation
							End Site
							{
								OFFSET 0 0 0
							}
						}
					}
				}
			}
		}
	}
	JOINT RightUpLeg_virtual
	{
		OFFSET 0.000000 0.000000 0.000000
		CHANNELS 3 Xrotation Yrotation Zrotation
		JOINT RightUpLeg
		{
			OFFSET -11.333700 -6.187798 -0.413800
			CHANNELS 3 Xrotation Yrotation Zrotation
			JOINT RightLeg
			{
				OFFSET -0.430392 -32.302628 3.733000
				CHANNELS 3 Xrotation Yrotation Zrotation
				JOINT RightFoot
				{
					OFFSET 0.430392 -48.264973 -6.423500
					CHANNELS 3 Xrotation Yrotation Zrotation
					JOINT RightToeBase
					{
						OFFSET -4.230900 -16.068199 23.438400
						CHANNELS 3 Xrotation Yrotation Zrotation
						JOINT RightToe_End
						{
							OFFSET -4.510700 0.695400 19.974600
							CHANNELS 3 Xrotation Yrotation Zrotation
							End Site
							{
								OFFSET 0 0 0
							}
						}
					}
				}
			}
		}
	}
	JOINT Spine_virtual
	{
		OFFSET 0.000000 0.000000 0.000000
		CHANNELS 3 Xrotation Yrotation Zrotation
		JOINT Spine
		{
			OFFSET -0.002400 12.777504 0.315300
			CHANNELS 3 Xrotation Yrotation Zrotation
			JOINT Spine1
			{
				OFFSET -0.002067 5.816869 0.032633
				CHANNELS 3 Xrotation Yrotation Zrotation
				JOINT Spine1_split
				{
					OFFSET -0.002067 5.816869 0.032633
					CHANNELS 3 Xrotation Yrotation Zrotation
					JOINT Spine2
					{
						OFFSET -0.002067 5.816869 0.032633
						CHANNELS 3 Xrotation Yrotation Zrotation
						JOINT Neck_virtual
						{
							OFFSET 0.000000 0.000000 0.000000
							CHANNELS 3 Xrotation Yrotation Zrotation
							JOINT Neck
							{
								OFFSET -0.003700 21.199493 -0.826900
								CHANNELS 3 Xrotation Yrotation Zrotation
								JOINT Head
								{
									OFFSET 0.000000 20.442200 4.834800
									CHANNELS 3 Xrotation Yrotation Zrotation
									JOINT HeadTop_End
									{
										OFFSET 0.000000 34.668396 4.968400
										CHANNELS 3 Xrotation Yrotation Zrotation
										End Site
										{
											OFFSET 0 0 0
										}
									}
								}
							}
						}
						JOINT LeftShoulder_virtual
						{
							OFFSET 0.000000 0.000000 0.000000
							CHANNELS 3 Xrotation Yrotation Zrotation
							JOINT LeftShoulder
							{
								OFFSET 3.288150 8.794197 -1.372250
								CHANNELS 3 Xrotation Yrotation Zrotation
								JOINT LeftShoulder_split
								{
									OFFSET 3.288150 8.794197 -1.372250
									CHANNELS 3 Xrotation Yrotation Zrotation
									JOINT LeftArm
									{
										OFFSET 11.953299 -2.279007 -0.146200
										CHANNELS 3 Xrotation Yrotation Zrotation
										JOINT LeftForeArm
										{
											OFFSET 18.448900 0.000000 0.000000
											CHANNELS 3 Xrotation Yrotation Zrotation
											JOINT LeftHand
											{
												OFFSET 29.527798 0.000000 0.000000
												CHANNELS 3 Xrotation Yrotation Zrotation
												End Site
												{
													OFFSET 0 0 0
												}
											}
										}
									}
								}
							}
						}
						JOINT RightShoulder_virtual
						{
							OFFSET 0.000000 0.000000 0.000000
							CHANNELS 3 Xrotation Yrotation Zrotation
							JOINT RightShoulder
							{
								OFFSET -3.249400 8.794197 -1.372250
								CHANNELS 3 Xrotation Yrotation Zrotation
								JOINT RightShoulder_split
								{
									OFFSET -3.249400 8.794197 -1.372250
									CHANNELS 3 Xrotation Yrotation Zrotation
									JOINT RightArm
									{
										OFFSET -11.953299 -2.279007 -0.146200
										CHANNELS 3 Xrotation Yrotation Zrotation
										JOINT RightForeArm
										{
											OFFSET -18.448900 0.000000 0.000000
											CHANNELS 3 Xrotation Yrotation Zrotation
											JOINT RightHand
											{
												OFFSET -29.527802 0.000000 0.000000
												CHANNELS 3 Xrotation Yrotation Zrotation
												End Site
												{
													OFFSET 0 0 0
												}
											}
										}
									}
								}
							}
						}
					}
				}
			}
		}
	}
}
MOTION
Frames: 9
Frame Time: 0.03333333
61.917671 101.408348 152.251968 0.000000 0.000000 0.000000 -6.907807 38.804750 9.241862 -28.263171 7.065889 -8.892213 27.515841 -7.533510 1.433647 29.771217 1.440804 13.869888 -29.384321 -0.534198 5.584027 0.000000 0.000000 0.000000 -6.682918 39.974003 8.796076 -20.893747 12.826235 2.028840 50.655866 -6.903779 -2.380128 23.875519 -5.208359 -3.813713 -52.788418 -2.530002 9.228761 0.000000 0.000000 0.000000 -6.111083 38.801239 8.475007 3.528111 -2.217342 -4.973818 -0.988514 -1.199417 1.061004 0.588600 0.663705 0.129098 0.000000 0.000000 0.000000 -1.933668 -1.090135 1.233739 -9.047402 3.271730 2.250643 7.356687 5.849214 -2.159604 0.000000 0.000000 0.000000 -2.347396 -0.902832 1.437624 1.177597 8.965385 -3.986968 1.080917 2.106609 -1.116607 8.413154 -9.402778 -67.162999 11.109164 -23.772511 4.166903 0.000000 0.000000 0.000000 -2.006426 -1.153558 1.124505 1.455621 1.942039 4.435934 0.066937 1.535948 -2.468949 0.237265 7.346656 76.722204 10.979854 15.834200 -2.498582 0.000000 0.000000 0.000000 
64.339569 102.367844 155.283936 0.000000 0.000000 0.000000 -6.045575 40.666359 7.405465 -23.860064 5.723039 -8.648567 26.047848 -7.500022 1.740920 24.636202 4.225274 14.628903 -26.557656 0.575636 3.504003 0.000000 0.000000 0.000000 -6.015474 41.415467 7.027165 -28.490541 13.308519 2.968321 46.778036 -6.445386 -2.559554 25.421249 -4.086432 -4.167848 -42.705727 -2.170844 10.009906 0.000000 0.000000 0.000000 -5.636438 39.963929 7.032371 4.078908 -2.703856 -4.504475 -1.185008 -1.534153 1.242887 0.590881 0.814041 -0.002089 0.000000 0.000000 0.000000 -1.971000 -1.414873 1.476000 -9.087937 3.164556 2.712233 7.527301 5.902273 -2.820036 0.000000 0.000000 0.000000 -2.291388 -1.267769 1.677275 1.031870 8.011525 -3.626784 1.015114 2.566442 -1.102021 6.829556 -11.680123 -66.918307 11.356893 -24.293294 4.458329 0.000000 0.000000 0.000000 -2.127715 -1.490075 1.345085 1.127369 0.787128 5.249665 0.678959 1.769402 -2.652961 0.419686 6.376114 75.675907 10.808672 15.944428 -2.499230 0.000000 0.000000 0.000000 
66.990036 103.148788 158.304642 0.000000 0.000000 0.000000 -5.239530 42.979553 5.922247 -18.686402 5.649103 -8.262217 23.805629 -8.121331 1.857728 18.500839 5.086268 16.063697 -25.299618 1.309651 2.019493 0.000000 0.000000 0.000000 -5.144133 43.229664 5.440974 -34.611212 12.445209 2.902169 40.708949 -4.947996 -2.940167 29.589909 -1.381364 -2.548592 -37.769047 -1.420846 8.332379 0.000000 0.000000 0.000000 -5.143283 41.551644 5.854747 4.440946 -3.058903 -4.378428 -1.335137 -1.847509 1.409521 0.827227 0.937233 -0.208597 0.000000 0.000000 0.000000 -2.033314 -1.745441 1.694216 -9.140284 2.939118 3.397388 7.337516 5.981096 -3.485353 0.000000 0.000000 0.000000 -2.292491 -1.631376 1.863320 0.894604 6.986521 -3.234930 0.886635 2.817330 -1.136136 4.940056 -13.845795 -66.966385 11.539726 -24.314691 4.803491 0.000000 0.000000 0.000000 -2.194377 -1.825978 1.530302 0.807554 -0.379518 6.143598 1.218738 2.070715 -2.697937 0.787027 5.263891 74.713192 10.734550 16.200613 -2.617528 0.000000 0.000000 0.000000 
69.765892 103.522827 161.202194 0.000000 0.000000 0.000000 -4.752493 45.928528 5.262432 -14.108116 6.794189 -7.529731 21.726734 -10.256852 1.646026 14.925442 3.164630 17.090469 -26.941864 1.268059 2.184748 0.000000 0.000000 0.000000 -4.291063 45.849789 4.465150 -38.690594 10.578397 1.887183 33.014245 -3.070095 -3.171126 33.901238 1.849651 -0.697970 -35.667265 -0.593775 5.177113 0.000000 0.000000 0.000000 -4.907465 43.770048 5.412004 4.660969 -3.384497 -4.759121 -1.396537 -2.156298 1.592837 0.828193 0.854195 -0.308953 0.000000 0.000000 0.000000 -2.147352 -2.059931 1.915023 -9.249503 2.602284 4.257802 6.845564 6.130356 -4.029590 0.000000 0.000000 0.000000 -2.353741 -1.968700 2.033665 0.751714 5.990408 -2.748063 0.767477 2.923948 -1.211445 2.864390 -15.629647 -67.295784 11.606379 -24.219697 5.169970 0.000000 0.000000 0.000000 -2.241037 -2.146096 1.715864 0.533435 -1.511160 7.020157 1.720334 2.460259 -2.598549 1.476150 4.225073 73.865368 10.807478 16.568922 -2.856518 0.000000 0.000000 0.000000 
72.449013 103.515640 163.918152 0.000000 0.000000 0.000000 -4.544479 49.212223 5.431009 -10.820102 8.697845 -6.648683 20.560615 -13.536588 1.118099 14.662176 -0.346088 18.478180 -29.520183 0.657748 3.153374 0.000000 0.000000 0.000000 -3.417854 49.200148 4.170717 -40.779733 7.886668 0.227008 25.365982 -1.661165 -3.134135 36.932957 4.317968 -0.106595 -33.612908 0.271620 1.795600 0.000000 0.000000 0.000000 -4.988913 46.654000 5.800880 4.752317 -3.798785 -5.679850 -1.341832 -2.451330 1.839007 0.859101 0.786141 -0.371411 0.000000 0.000000 0.000000 -2.292702 -2.330730 2.157959 -9.503062 2.149367 5.197034 6.222032 6.301974 -4.326350 0.000000 0.000000 0.000000 -2.433238 -2.253292 2.250066 0.600034 5.048910 -2.113089 0.768810 2.929638 -1.294351 0.765889 -16.845903 -67.828976 11.548375 -24.384066 5.566001 0.000000 0.000000 0.000000 -2.254514 -2.434062 1.944426 0.315054 -2.514790 7.868077 2.177665 2.971370 -2.332059 2.357150 3.365585 73.138902 11.000230 16.841182 -3.148746 0.000000 0.000000 0.000000 
75.040611 103.139099 166.763092 0.000000 0.000000 0.000000 -4.369672 52.300224 6.096339 -7.962763 11.025483 -5.898133 20.056991 -16.705391 0.485248 15.363460 -3.722006 21.365815 -30.597451 0.010888 3.967046 0.000000 0.000000 0.000000 -2.791167 53.014316 4.529840 -41.996316 4.727463 -1.600405 19.196045 -1.205021 -2.858298 38.661371 5.109008 -0.866038 -30.728017 0.901916 -0.766613 0.000000 0.000000 0.000000 -5.326668 49.852086 6.845536 4.687920 -4.283292 -7.008106 -1.151391 -2.719473 2.149649 0.940225 0.742753 -0.342888 0.000000 0.000000 0.000000 -2.382143 -2.542257 2.443044 -9.920312 1.623647 6.133202 5.630679 6.421804 -4.277831 0.000000 0.000000 0.000000 -2.491848 -2.472138 2.544190 0.431511 4.188423 -1.332241 0.762711 2.856271 -1.413052 -1.206266 -17.377302 -68.501764 11.356612 -24.935714 5.952774 0.000000 0.000000 0.000000 -2.205888 -2.663097 2.244335 0.142753 -3.303654 8.661274 2.450375 3.304963 -1.853908 3.200789 2.690831 72.534587 11.226878 16.710220 -3.420276 0.000000 0.000000 0.000000 
77.428734 102.417992 169.538559 0.000000 0.000000 0.000000 -4.305866 55.152774 6.987981 -5.171167 12.731677 -5.248427 20.203503 -19.377689 0.120790 15.464744 -5.978391 23.744743 -29.763905 -0.029862 3.936918 0.000000 0.000000 0.000000 -2.558214 56.777986 5.313651 -43.237604 1.864888 -2.941202 15.432693 -1.226667 -2.575104 39.507402 4.639818 -2.209586 -27.697092 1.267465 -2.258067 0.000000 0.000000 0.000000 -6.117920 52.952749 8.291127 4.530801 -4.769360 -8.389725 -0.840030 -2.917297 2.518107 0.934186 0.617167 -0.256436 0.000000 0.000000 0.000000 -2.305750 -2.681114 2.755136 -10.365324 1.107083 6.925639 5.308090 6.350094 -3.888886 0.000000 0.000000 0.000000 -2.473055 -2.611817 2.889711 0.244773 3.503700 -0.461517 0.823049 2.726158 -1.574790 -2.840096 -17.323832 -69.235715 11.114308 -25.850630 6.284505 0.000000 0.000000 0.000000 -2.079249 -2.815271 2.603992 -0.027474 -3.747116 9.386165 2.400142 3.321129 -1.295128 3.753492 2.151523 71.993144 11.376150 15.937055 -3.588818 0.000000 0.000000 0.000000 
79.674706 101.547607 172.466858 0.000000 0.000000 0.000000 -4.392499 57.679260 7.678494 -1.769708 13.263707 -4.932329 20.728130 -20.878290 0.098602 12.691455 -6.639235 25.602414 -28.184016 0.533521 2.797139 0.000000 0.000000 0.000000 -2.562478 60.058140 5.942153 -44.563364 -0.297664 -3.457768 14.721571 -1.477070 -2.367953 40.272510 3.589241 -3.372030 -26.307003 1.504894 -2.782515 0.000000 0.000000 0.000000 -6.969668 55.462673 9.468906 4.191582 -5.104941 -9.459517 -0.460032 -3.012416 2.878964 1.086069 0.762028 -0.207497 0.000000 0.000000 0.000000 -2.014091 -2.742785 3.047008 -10.750799 0.657318 7.450992 5.359990 6.081160 -3.270572 0.000000 0.000000 0.000000 -2.358721 -2.665421 3.242824 0.045474 3.005540 0.364517 0.919941 2.346688 -1.790023 -3.867248 -16.892139 -69.948855 10.878216 -26.796553 6.489215 0.000000 0.000000 0.000000 -1.844588 -2.883217 2.970287 -0.194446 -3.783614 10.068269 1.976922 3.078951 -0.802403 3.938894 1.700409 71.602512 11.418026 14.571705 -3.645494 0.000000 0.000000 0.000000 
81.984848 100.580612 175.346115 0.000000 0.000000 0.000000 -4.904752 59.736739 8.091004 1.729764 12.577423 -4.511382 22.513989 -21.479347 0.545598 7.932151 -6.210813 26.068694 -28.058089 1.133448 1.715665 0.000000 0.000000 0.000000 -2.811254 62.387180 6.108819 -45.948773 -1.409238 -3.054803 16.528383 -1.733915 -2.260407 40.999867 2.456475 -3.751605 -27.353355 1.604961 -2.589561 0.000000 0.000000 0.000000 -7.696158 57.168376 10.034785 3.743972 -5.174571 -9.884550 -0.053628 -2.984400 3.163387 1.195820 1.005831 -0.244880 0.000000 0.000000 0.000000 -1.536852 -2.735499 3.289298 -10.948126 0.375632 7.607192 5.744385 5.683502 -2.600544 0.000000 0.000000 0.000000 -2.149609 -2.649031 3.525100 -0.164533 2.779798 0.960436 1.081031 1.722175 -1.864056 -4.076946 -16.278359 -70.563750 10.650439 -27.284324 6.437839 0.000000 0.000000 0.000000 -1.528997 -2.877187 3.266949 -0.352139 -3.422104 10.587513 1.231345 2.665059 -0.498793 3.947062 1.400832 71.452098 11.373417 12.887388 -3.643060 0.000000 0.000000 0.000000 
